<svg xmlns="http://www.w3.org/2000/svg" width="180" height="180" viewBox="0 0 180 180"><g fill="none" stroke-linecap="round" stroke-linejoin="round" opacity=".28"><path d="M25 30l8-9 8 9v18c0 12-10 21-22 21S-3 60-3 48V30l8-9 8 9" fill="#fff" stroke="#e85d98" stroke-width="3"/><circle cx="13" cy="45" r="2" fill="#9d174d" stroke="none"/><circle cx="29" cy="45" r="2" fill="#9d174d" stroke="none"/><path d="M18 53q4 4 8 0M7 51l-10-2M7 56l-10 3M35 51l10-2M35 56l10 3" stroke="#9d174d" stroke-width="2"/><path d="M126 29c-9-10-23 2-13 12l13 13 13-13c10-10-4-22-13-12z" fill="#fb7185" stroke="#db2777" stroke-width="2"/><path d="M57 118c-12-12-28 4-16 16l16 16 16-16c12-12-4-28-16-16z" fill="#f9a8d4" stroke="#ec4899" stroke-width="2"/><path d="M135 118l10-8 10 8-5 10 5 10-10-3-10 3 5-10z" fill="#fff" stroke="#e85d98" stroke-width="2"/><circle cx="92" cy="82" r="4" fill="#f472b6" stroke="none"/></g></svg>
