<svg xmlns="http://www.w3.org/2000/svg" width="180" height="180" viewBox="0 0 180 180"><g fill="none" stroke-linecap="round" stroke-linejoin="round" opacity=".28"><ellipse cx="25" cy="24" rx="9" ry="21" fill="#fff" stroke="#fb718f" stroke-width="3"/><ellipse cx="49" cy="24" rx="9" ry="21" fill="#fff" stroke="#fb718f" stroke-width="3"/><circle cx="37" cy="51" r="22" fill="#fff" stroke="#fb718f" stroke-width="3"/><circle cx="30" cy="48" r="2" fill="#901b55" stroke="none"/><circle cx="44" cy="48" r="2" fill="#901b55" stroke="none"/><path d="M33 57q4 4 8 0" stroke="#901b55" stroke-width="2"/><path d="M126 28v35c0 8-13 10-16 3-3-8 8-14 16-9M126 35l20-5v28c0 8-13 10-16 3-3-8 8-14 16-9" stroke="#a21caf" stroke-width="4"/><path d="M64 120c-9-11-25 2-14 14l14 15 14-15c11-12-5-25-14-14z" fill="#fda4c7" stroke="#d92d6d" stroke-width="2"/><circle cx="132" cy="128" r="17" fill="#fce7f3" stroke="#c084fc" stroke-width="3"/></g></svg>
