<svg xmlns="http://www.w3.org/2000/svg" viewBox="0 0 1200 400"><defs><linearGradient id="sky" x2="0" y2="1"><stop stop-color="#28203f"/><stop offset="1" stop-color="#61445e"/></linearGradient></defs><path fill="url(#sky)" d="M0 0h1200v400H0z"/><circle cx="110" cy="35" r="2" fill="#fff1c7" opacity=".6"/><circle cx="210" cy="95" r="3" fill="#fff1c7" opacity=".6"/><circle cx="380" cy="48" r="2" fill="#fff1c7" opacity=".6"/><circle cx="505" cy="65" r="3" fill="#fff1c7" opacity=".6"/><circle cx="650" cy="25" r="2" fill="#fff1c7" opacity=".6"/><circle cx="820" cy="80" r="2" fill="#fff1c7" opacity=".6"/><circle cx="955" cy="35" r="3" fill="#fff1c7" opacity=".6"/><circle cx="1130" cy="112" r="2" fill="#fff1c7" opacity=".6"/><path d="M0 315Q160 275 330 315T670 315T1000 315T1200 315V400H0" fill="#61445e" opacity=".7"/><circle cx="875" cy="105" r="54" fill="#ffe5af"/><path d="M0 300Q200 210 370 290T740 290T1200 270V400H0" fill="#392c48"/><path d="M980 155q-27-35-54-6q28-5 28 15q26-16 45 0q0-20 26-15q-22-29-45 6" fill="#332540"/><g fill="#eee6f8"><path d="M695 315v-95a38 38 0 0176 0v95l-15-13-15 13-15-13-16 13z"/></g><g fill="#473753"><circle cx="721" cy="225" r="5"/><circle cx="748" cy="225" r="5"/><ellipse cx="735" cy="242" rx="4" ry="6"/></g><g transform="translate(920 330) scale(1.35)"><path d="M0-30q-5-23 12-28" fill="none" stroke="#789466" stroke-width="9"/><ellipse rx="48" ry="40" fill="#ef873f"/><ellipse rx="30" ry="40" fill="#ffae56"/><ellipse rx="12" ry="39" fill="#ffd086"/><path d="M-30-5l16-12 6 15m38-3L14-17 8-2M-21 17q21 23 42 0" fill="#58354e" stroke="#58354e" stroke-width="3"/></g><g transform="translate(1060 350) scale(0.8)"><path d="M0-30q-5-23 12-28" fill="none" stroke="#789466" stroke-width="9"/><ellipse rx="48" ry="40" fill="#ef873f"/><ellipse rx="30" ry="40" fill="#ffae56"/><ellipse rx="12" ry="39" fill="#ffd086"/><path d="M-30-5l16-12 6 15m38-3L14-17 8-2M-21 17q21 23 42 0" fill="#58354e" stroke="#58354e" stroke-width="3"/></g><g transform="translate(600 350) scale(0.65)"><path d="M0-30q-5-23 12-28" fill="none" stroke="#789466" stroke-width="9"/><ellipse rx="48" ry="40" fill="#ef873f"/><ellipse rx="30" ry="40" fill="#ffae56"/><ellipse rx="12" ry="39" fill="#ffd086"/><path d="M-30-5l16-12 6 15m38-3L14-17 8-2M-21 17q21 23 42 0" fill="#58354e" stroke="#58354e" stroke-width="3"/></g></svg>